<svg id="Layer_1" data-name="Layer 1" xmlns="http://www.w3.org/2000/svg" viewBox="0 0 1000 334"><defs><style>.cls-1,.cls-2,.cls-4,.cls-5,.cls-6{fill:none;stroke:#fff;}.cls-1,.cls-4,.cls-5,.cls-6{stroke-miterlimit:10;}.cls-1,.cls-4{stroke-width:6.68px;}.cls-2{stroke-linejoin:round;stroke-width:5.12px;}.cls-3{fill:#fff;}.cls-4,.cls-6{stroke-linecap:round;}.cls-5,.cls-6{stroke-width:14.96px;}</style></defs><title>Artboard 1</title><rect class="cls-1" x="77.29" y="47.65" width="95.42" height="145.29" rx="37.16" ry="37.16"/><line class="cls-1" x1="125" y1="95.17" x2="125" y2="108.52"/><line class="cls-1" x1="125" y1="49.62" x2="125" y2="62.97"/><line class="cls-1" x1="77.29" y1="108.52" x2="172.71" y2="108.52"/><rect class="cls-2" x="118.53" y="62.97" width="12.93" height="32.2" rx="6.47" ry="6.47"/><g id="_Group_" data-name="&lt;Group&gt;"><path class="cls-3" d="M375.06,95.17v13.35H327.35V84.81a37.16,37.16,0,0,1,37.16-37.16h10.55V63a6.46,6.46,0,0,0-6.46,6.46V88.7a6.46,6.46,0,0,0,6.46,6.46Z"/><path class="cls-1" d="M422.77,108.52v47.26a37.16,37.16,0,0,1-37.16,37.16h-21.1a37.16,37.16,0,0,1-37.16-37.16v-71a37.16,37.16,0,0,1,37.16-37.16h21.1a37.16,37.16,0,0,1,37.16,37.16Z"/><line class="cls-1" x1="375.06" y1="95.17" x2="375.06" y2="108.52"/><line class="cls-1" x1="375.06" y1="49.62" x2="375.06" y2="62.97"/><polyline class="cls-1" points="327.35 108.52 375.06 108.52 422.77 108.52"/><path class="cls-2" d="M375.06,95.16a6.46,6.46,0,0,1-6.46-6.46V69.43a6.47,6.47,0,0,1,12.93,0V88.7A6.47,6.47,0,0,1,375.06,95.16Z"/></g><path class="cls-3" d="M692.21,123.63,669.63,101a1.94,1.94,0,0,0-3.32,1.37v15.1h-35v-35h15.1a1.94,1.94,0,0,0,1.37-3.32L625.2,56.61a1.94,1.94,0,0,0-2.75,0L599.87,79.19a1.94,1.94,0,0,0,1.37,3.32h15.1v35h-35v-15.1A1.94,1.94,0,0,0,578,101l-22.57,22.58a1.94,1.94,0,0,0,0,2.75L578,149a1.94,1.94,0,0,0,3.32-1.37v-15.1h35v35h-15.1a1.94,1.94,0,0,0-1.37,3.32l22.58,22.57a1.94,1.94,0,0,0,2.75,0l22.58-22.57a1.94,1.94,0,0,0-1.37-3.32H631.3v-35h35v15.1a1.94,1.94,0,0,0,3.32,1.37l22.57-22.58A1.94,1.94,0,0,0,692.21,123.63Z"/><line class="cls-4" x1="364.51" y1="37.25" x2="364.51" y2="13.23"/><line class="cls-4" x1="330.88" y1="51.18" x2="313.89" y2="34.19"/><line class="cls-4" x1="316.95" y1="84.81" x2="292.93" y2="84.81"/><line class="cls-1" x1="849.75" y1="117.08" x2="849.75" y2="77.85"/><line class="cls-1" x1="829.76" y1="97.46" x2="869.74" y2="97.46"/><circle class="cls-5" cx="849.75" cy="96.9" r="51.91"/><line class="cls-6" x1="946" y1="204" x2="882.48" y2="137.19"/></svg>